<svg xmlns="http://www.w3.org/2000/svg" width="24" height="24" viewBox="0 0 24 24">
    <g>
        <g>
            <path fill="#f4f4f4" fill-rule="evenodd" d="M2484.731 3214.236a12 12 0 1 1-12-12 12 12 0 0 1 12 12z" transform="translate(-2460.731 -3202.236) translate(2460.731 3202.236) translate(-2460.731 -3202.236)"/>
        </g>
        <path fill="#0d4a2a" d="M2507.44 3247.776l-3.906-3.906 3.906-3.906a.825.825 0 1 0-1.167-1.167l-3.906 3.906-3.906-3.906a.825.825 0 1 0-1.167 1.167l3.906 3.906-3.906 3.906a.826.826 0 0 0 1.167 1.167l3.906-3.906 3.906 3.906a.825.825 0 0 0 1.167-1.167z" transform="translate(-2460.731 -3202.236) translate(-29.636 -29.634)"/>
    </g>
</svg>
