<svg xmlns="http://www.w3.org/2000/svg" width="20" height="20" viewBox="0 0 20 20">
    <g>
        <g opacity="0.3">
            <path fill="#fff" fill-rule="evenodd" d="M2480.731 3212.236a10 10 0 1 1-10-10 10 10 0 0 1 10 10z" transform="translate(-2460.731 -3202.236) translate(2460.731 3202.236) translate(-2460.731 -3202.236)"/>
        </g>
        <path fill="#fff" d="M2505.709 3246.239l-3.255-3.255 3.255-3.255a.688.688 0 1 0-.973-.973l-3.255 3.256-3.255-3.256a.688.688 0 0 0-.973.973l3.255 3.255-3.255 3.255a.689.689 0 0 0 0 .973.689.689 0 0 0 .973 0l3.255-3.255 3.255 3.255a.688.688 0 0 0 .973-.973z" transform="translate(-2460.731 -3202.236) translate(-30.75 -30.748)"/>
    </g>
</svg>
