<svg xmlns="http://www.w3.org/2000/svg" width="32" height="32" viewBox="0 0 32 32">
    <g transform="translate(-497.402 -2272.16)">
        <rect width="32" height="32" fill="#bffada" rx="4" transform="translate(497.402 2272.16)"/>
        <g>
            <path fill="#ff532f" fill-rule="evenodd" d="M951.494 3808.954l.228.339a.41.41 0 0 1-.457 0zm0-6.593a2.649 2.649 0 0 0-2.525-1.154 2.385 2.385 0 0 0-1.975 2.522 3.979 3.979 0 0 0 .7 2.079 10.02 10.02 0 0 0 1.466 1.754 16.929 16.929 0 0 0 1.442 1.247c.2.152.36.272.476.354l.135.1.036.025.01.006.228-.339.228.339.01-.006.036-.025.135-.1c.115-.083.279-.2.475-.354a16.947 16.947 0 0 0 1.442-1.247 10.018 10.018 0 0 0 1.466-1.754 3.978 3.978 0 0 0 .7-2.079 2.385 2.385 0 0 0-1.975-2.522 2.649 2.649 0 0 0-2.51 1.154z" transform="translate(513.402 2279.154) translate(-946.994 -3801.181)"/>
        </g>
        <g transform="translate(504.402 2285.824)">
            <g>
                <g>
                    <path fill="#45c784" d="M892.5 3902.566h-10.7l.2-.669a5.321 5.321 0 0 1 10.3 0z" transform="translate(0 6.682) translate(-881.797 -3897.905)"/>
                </g>
            </g>
            <circle cx="3.067" cy="3.067" r="3.067" fill="#26a361" transform="translate(2.25 0)"/>
        </g>
    </g>
</svg>
