<svg id="ico" xmlns="http://www.w3.org/2000/svg" width="48" height="48" viewBox="0 0 48 48">
  <defs>
    <style>
      .cls-1 {
        fill: #11a5a5;
      }

      .cls-2 {
        fill: #057889;
        fill-rule: evenodd;
      }

      .cls-3 {
        fill: #007272;
      }

      .cls-4 {
        fill: #005858;
      }
    </style>
  </defs>
  <rect id="사각형_5887" data-name="사각형 5887" class="cls-1" width="48" height="48" rx="4"/>
  <g id="그룹_41222" data-name="그룹 41222" transform="translate(-870.798 -3790.632)">
    <g id="그룹_41218" data-name="그룹 41218" transform="translate(894.797 3801.181)">
      <path id="패스_3579" data-name="패스 3579" class="cls-2" d="M953.494,3812.408l.33.49a.591.591,0,0,1-.66,0Zm0-9.522a3.823,3.823,0,0,0-3.648-1.667,3.444,3.444,0,0,0-2.852,3.642,5.744,5.744,0,0,0,1.015,3,14.456,14.456,0,0,0,2.118,2.534,24.455,24.455,0,0,0,2.082,1.8c.283.219.52.393.687.512l.2.138.053.036.014.01,0,0h0l.33-.49.33.49h0l0,0,.014-.01.053-.036.2-.138c.167-.119.4-.293.687-.512a24.445,24.445,0,0,0,2.082-1.8,14.454,14.454,0,0,0,2.118-2.534,5.744,5.744,0,0,0,1.015-3,3.444,3.444,0,0,0-2.852-3.642A3.823,3.823,0,0,0,953.494,3802.886Z" transform="translate(-946.994 -3801.181)"/>
    </g>
    <g id="ico-2" data-name="ico" transform="translate(-1187.162 3311.985)">
      <g id="ico-3" data-name="ico" transform="translate(2068.959 498.83)">
        <g id="User" transform="translate(0 0)">
          <g id="그룹_40600" data-name="그룹 40600">
            <g id="그룹_40599" data-name="그룹 40599">
              <path id="패스_2161" data-name="패스 2161" class="cls-3" d="M684.637,3535.062a4.473,4.473,0,1,1,4.473-4.472A4.478,4.478,0,0,1,684.637,3535.062Z" transform="translate(-676.934 -3526.117)"/>
              <path id="패스_2165" data-name="패스 2165" class="cls-4" d="M690.119,3603.488H674.712l.286-.966a7.66,7.66,0,0,1,14.835,0Z" transform="translate(-674.712 -3587.104)"/>
            </g>
          </g>
        </g>
      </g>
    </g>
  </g>
</svg>
