<svg xmlns="http://www.w3.org/2000/svg" width="48" height="48" viewBox="0 0 48 48">
  <defs>
    <style>
      .cls-1 {
        fill: #75edad;
      }

      .cls-2 {
        fill: #048b44;
      }
    </style>
  </defs>
  <g id="ico" transform="translate(-497.402 -2272.16)">
    <g id="ico-2" data-name="ico" transform="translate(497.402 2272.16)">
      <rect id="사각형_5887" data-name="사각형 5887" class="cls-1" width="48" height="48" rx="4"/>
      <g id="그룹_41223" data-name="그룹 41223" transform="translate(-192.631 -2267.028)">
        <path id="패스_3580" data-name="패스 3580" class="cls-2" d="M285.284,2307.107a.669.669,0,0,1-.482.813,17.115,17.115,0,0,0-4.732,2.149,3.591,3.591,0,0,0,.662.737,4.885,4.885,0,0,0,4.018,1.1c2.518-.53,3.848-3.1,4.391-5.38a13.246,13.246,0,0,0,.359-2.949s-4.708-1.119-7.8-.006c-2.075.749-2.734,3.312-2.2,5.261a18.137,18.137,0,0,1,4.966-2.207A.669.669,0,0,1,285.284,2307.107Z" transform="translate(-61.094 -19.31)"/>
        <path id="패스_3581" data-name="패스 3581" class="cls-2" d="M209.586,2288.356a4.86,4.86,0,0,0,3.88-.984,9.353,9.353,0,0,0-4.211-3.452.668.668,0,0,1,.539-1.223,10.63,10.63,0,0,1,4.578,3.666,4.08,4.08,0,0,0,.35-.706c.736-1.976.136-4.827-2.068-5.629-3.085-1.121-7.794-.015-7.8-.015a13.274,13.274,0,0,0,.35,2.951C205.747,2285.249,207.069,2287.82,209.586,2288.356Z"/>
        <path id="패스_3582" data-name="패스 3582" class="cls-2" d="M252.85,2318.5a8.575,8.575,0,0,1,1.378,4.944v2.769c0,.009,0,.016,0,.025s0,0,0,.006v6.745a.668.668,0,1,0,1.337,0v-6.75c0-1.878,1.288-3.312,2.8-4.351a4.058,4.058,0,0,1-.448-.875c-.043-.118-.082-.24-.116-.363a9.759,9.759,0,0,0-2.248,2,10.418,10.418,0,0,0-1.792-5.154,3.639,3.639,0,0,1-.764.9C252.947,2318.429,252.9,2318.462,252.85,2318.5Z" transform="translate(-39.385 -31.126)"/>
      </g>
    </g>
  </g>
</svg>
