<svg id="ico" xmlns="http://www.w3.org/2000/svg" width="48" height="48" viewBox="0 0 48 48">
  <defs>
    <style>
      .cls-1 {
        fill: #ffe6e6;
      }

      .cls-2 {
        fill: #f55;
        fill-rule: evenodd;
      }
    </style>
  </defs>
  <rect id="사각형_5887" data-name="사각형 5887" class="cls-1" width="48" height="48" rx="4"/>
  <g id="그룹_41217" data-name="그룹 41217" transform="translate(-644.213 -2562.565)">
    <path id="패스_3578" data-name="패스 3578" class="cls-2" d="M668.212,2594.748l.507.754a.91.91,0,0,1-1.015,0Zm0-14.65a5.882,5.882,0,0,0-5.612-2.564c-2.436.37-4.388,2.436-4.388,5.6a8.838,8.838,0,0,0,1.562,4.619,22.255,22.255,0,0,0,3.259,3.9,37.647,37.647,0,0,0,3.2,2.771c.436.337.8.6,1.057.788.128.092.229.163.3.212l.081.056.022.015.006,0,0,0,.507-.754.507.754,0,0,.006,0,.022-.015.081-.056c.07-.048.172-.12.3-.212.257-.184.621-.45,1.057-.788a37.665,37.665,0,0,0,3.2-2.771,22.271,22.271,0,0,0,3.259-3.9,8.838,8.838,0,0,0,1.561-4.619c0-3.168-1.952-5.234-4.389-5.6A5.882,5.882,0,0,0,668.212,2580.1Z" transform="translate(0)"/>
  </g>
</svg>
