<svg xmlns="http://www.w3.org/2000/svg" width="32" height="32" viewBox="0 0 32 32">
    <g transform="translate(-497.402 -2272.16)">
        <rect width="32" height="32" fill="#ff7052" rx="4" transform="translate(497.402 2272.16)"/>
        <g>
            <path fill="#ffc2b5" fill-rule="evenodd" d="M667.212 2593.02l.457.679a.819.819 0 0 1-.913 0zm0-13.185a5.3 5.3 0 0 0-5.05-2.307 4.769 4.769 0 0 0-3.95 5.043 7.956 7.956 0 0 0 1.405 4.157 20.048 20.048 0 0 0 2.933 3.508 33.915 33.915 0 0 0 2.883 2.494c.393.3.72.543.951.709.115.083.207.146.27.19l.073.05.02.013h.006l.457-.679.457.679h.006l.02-.013.073-.05.27-.19c.231-.166.559-.406.951-.709a33.9 33.9 0 0 0 2.883-2.494 20.058 20.058 0 0 0 2.933-3.508 7.956 7.956 0 0 0 1.405-4.157 4.769 4.769 0 0 0-3.95-5.043 5.3 5.3 0 0 0-5.046 2.307z" transform="translate(-153.811 -297.496) translate(0)"/>
        </g>
    </g>
</svg>
