<svg xmlns="http://www.w3.org/2000/svg" width="80" height="80" viewBox="0 0 80 80">
    <defs>
        <style>
            .cls-2{fill:#161615}
        </style>
    </defs>
    <g id="talk" transform="translate(-277 50)">
        <rect id="사각형_5937" width="80" height="80" fill="#e0d225" rx="4" transform="translate(277 -50)"/>
        <g id="그룹_41240" transform="translate(-1935.475 -3560.113)">
            <g id="그룹_41238" transform="translate(2247.07 3547.981)">
                <path id="패스_3590" d="M2273.54 3574.21l-1.086 3.383h2.156l-1.047-3.383z" class="cls-2" transform="translate(-2272.453 -3574.21)"/>
            </g>
            <g id="그룹_41239" transform="translate(2236.474 3537.033)">
                <path id="패스_3591" d="M2252.474 3537.033c-8.836 0-16 5.656-16 12.637 0 4.49 2.969 8.421 7.425 10.67l-1.509 5.629a.467.467 0 0 0 .114.48.455.455 0 0 0 .327.135.466.466 0 0 0 .278-.107l6.484-4.378a20.2 20.2 0 0 0 2.88.211c8.835 0 16-5.657 16-12.639s-7.164-12.638-15.999-12.638zm-8.546 16.635a.965.965 0 0 1-.252.694.881.881 0 0 1-.675.262.941.941 0 0 1-.589-.188.871.871 0 0 1-.31-.522.979.979 0 0 1-.017-.245v-6h-1.741a1.146 1.146 0 0 1-.618-.166.679.679 0 0 1-.319-.467c-.01-.053-.02-.115-.026-.179a.7.7 0 0 1 .273-.591 1.081 1.081 0 0 1 .684-.215h5.324a1.132 1.132 0 0 1 .617.164.688.688 0 0 1 .323.468.876.876 0 0 1 .011.174.729.729 0 0 1-.266.6 1.072 1.072 0 0 1-.68.209h-1.741zm7.609.711a.832.832 0 0 1-.612.245.786.786 0 0 1-.827-.525l-.476-1.4h-2.966l-.479 1.4a.769.769 0 0 1-.825.525.858.858 0 0 1-.544-.168.769.769 0 0 1-.282-.476.9.9 0 0 1-.017-.2 1.044 1.044 0 0 1 .05-.339c.034-.132.077-.266.125-.4l2.382-6.563a.822.822 0 0 1 .336-.45 1.062 1.062 0 0 1 .564-.135h.443a1.157 1.157 0 0 1 .6.146.967.967 0 0 1 .381.557l2.224 6.446a3.715 3.715 0 0 1 .15.514 2.13 2.13 0 0 1 .033.221.81.81 0 0 1-.26.602zm6.154-.116a1.091 1.091 0 0 1-.686.211h-3.843a1.2 1.2 0 0 1-.693-.177.834.834 0 0 1-.349-.568 2.609 2.609 0 0 1-.04-.376v-6.5a.967.967 0 0 1 .252-.694.887.887 0 0 1 .676-.262.909.909 0 0 1 .59.192.878.878 0 0 1 .308.521.892.892 0 0 1 .016.243v6H2257a1.107 1.107 0 0 1 .622.164.7.7 0 0 1 .313.468 1.127 1.127 0 0 1 .027.176.709.709 0 0 1-.272.602zm6.921.146a1.069 1.069 0 0 1-.67.215.928.928 0 0 1-.46-.1 1.222 1.222 0 0 1-.362-.4l-2.123-3.417-1.012 1.054.01 1.908a.975.975 0 0 1-.253.694.887.887 0 0 1-.676.262.943.943 0 0 1-.59-.188.872.872 0 0 1-.31-.522 1.206 1.206 0 0 1-.016-.245v-6.811a.975.975 0 0 1 .251-.694.886.886 0 0 1 .674-.262.907.907 0 0 1 .589.192.852.852 0 0 1 .31.521.914.914 0 0 1 .018.243l.005 2.791 2.894-3.327a2.1 2.1 0 0 1 .351-.317.685.685 0 0 1 .384-.1.939.939 0 0 1 .551.171.685.685 0 0 1 .307.449c0 .006.006.033.013.071a.313.313 0 0 0 0 .078.717.717 0 0 1-.085.35 1.7 1.7 0 0 1-.219.308l-1.893 2.067 2.239 3.547.067.107a1.89 1.89 0 0 1 .265.534c0 .008.006.03.014.058a.454.454 0 0 0 0 .06.841.841 0 0 1-.274.703z" class="cls-2" transform="translate(-2236.474 -3537.033)"/>
            </g>
        </g>
    </g>
</svg>
