<svg xmlns="http://www.w3.org/2000/svg" width="32" height="37" viewBox="0 0 32 37">
    <g>
        <g>
            <path fill="#107c67" fill-rule="evenodd" d="M228.96 3202.5a4.549 4.549 0 0 0-3.036 0l-11.2 3.953a5.067 5.067 0 0 0-3.282 4.821v12.8c0 5.251 3.248 8.834 6.507 11.1a29.956 29.956 0 0 0 8.388 3.9 3.955 3.955 0 0 0 2.21 0 29.949 29.949 0 0 0 8.388-3.9c3.259-2.266 6.507-5.849 6.507-11.1v-12.8a5.067 5.067 0 0 0-3.282-4.821z" transform="translate(-211.442 -3202.236) translate(211.442 3202.236) translate(-211.442 -3202.236)"/>
        </g>
        <g>
            <path fill="#ffcd27" d="M257.486 3246.624a1.78 1.78 0 0 0 0-2.415 1.55 1.55 0 0 0-2.281 0l-8.536 9.038-3.7-3.916a1.55 1.55 0 0 0-2.281 0 1.78 1.78 0 0 0 0 2.415l4.838 5.123a1.55 1.55 0 0 0 2.281 0z" transform="translate(-211.442 -3202.236) translate(219.154 3214.004) translate(-240.218 -3243.708)"/>
        </g>
    </g>
</svg>
