<svg xmlns="http://www.w3.org/2000/svg" width="59.999" height="36.865" viewBox="0 0 59.999 36.865">
    <g>
        <path fill="#7c45c7" d="M690.228 3546.243a10.063 10.063 0 1 1 10.063-10.063 10.074 10.074 0 0 1-10.063 10.063z" transform="translate(-932.333 -455.83) translate(259.439 -3070.287)"/>
        <path fill="#b184ef" d="M709.379 3611.88h-34.667l.644-2.175a17.236 17.236 0 0 1 33.378 0z" transform="translate(-932.333 -455.83) translate(257.621 -3119.186)"/>
        <path fill="#b573e6" d="M690.228 3546.243a10.063 10.063 0 1 1 10.063-10.063 10.074 10.074 0 0 1-10.063 10.063z" transform="translate(-932.333 -455.83) translate(284.771 -3070.287)"/>
        <path d="M709.379 3611.88h-34.667l.644-2.175a17.236 17.236 0 0 1 33.378 0z" transform="translate(-932.333 -455.83) translate(282.953 -3119.186)" style="mix-blend-mode:multiply;isolation:isolate" fill="#9041cb"/>
    </g>
</svg>
