<svg xmlns="http://www.w3.org/2000/svg" width="24" height="22.442" viewBox="0 0 24 22.442">
    <defs>
        <style>
            .cls-1{fill:#045a2d}
        </style>
    </defs>
    <g id="ico_후원하기" transform="translate(-204.569 -2571.549)">
        <path id="패스_2218" d="M228.139 2637.4a2.523 2.523 0 0 0-2.677.406l-4.807 3.934a.953.953 0 0 1-.632.186h-4.111s-.515-.086-.515-.536a.531.531 0 0 1 .551-.537h3.589s1.108-.1 1.108-.986c0 0 .1-1.013-1.162-1.013l-7.062-.118a9.845 9.845 0 0 0-4.737 1.3l-2.809 2.194a.8.8 0 0 0-.067 1.2l4.059 3.977a.8.8 0 0 0 1.126 0l.819-.815a.722.722 0 0 1 .573-.315h8.455a4.324 4.324 0 0 0 2.781-1.214l5.8-6.532a.766.766 0 0 0-.282-1.131z" class="cls-1" transform="translate(0 -53.66)"/>
        <path id="패스_2219" d="M285.624 2589.091a.43.43 0 0 1-.31.523 11.025 11.025 0 0 0-3.045 1.383 2.3 2.3 0 0 0 .426.475 3.143 3.143 0 0 0 2.585.708c1.62-.341 2.475-1.992 2.825-3.462a8.531 8.531 0 0 0 .231-1.9 10.8 10.8 0 0 0-5.016 0 2.775 2.775 0 0 0-1.415 3.385 11.66 11.66 0 0 1 3.2-1.42.43.43 0 0 1 .519.308z" class="cls-1" transform="translate(-63.127 -12.221)"/>
        <path id="패스_2220" d="M237.565 2577.23a3.125 3.125 0 0 0 2.5-.633 6.02 6.02 0 0 0-2.709-2.221.43.43 0 1 1 .347-.786 6.836 6.836 0 0 1 2.946 2.358 2.652 2.652 0 0 0 .225-.455c.473-1.271.088-3.105-1.33-3.621a10.81 10.81 0 0 0-5.015-.009 8.524 8.524 0 0 0 .225 1.9c.34 1.468 1.191 3.122 2.811 3.467z" class="cls-1" transform="translate(-24.464)"/>
        <path id="패스_2221" d="M264.985 2596.295a5.516 5.516 0 0 1 .887 3.181v1.798c0 .006 0 0 0 0v1.63a.43.43 0 0 0 .86 0v-1.633a3.54 3.54 0 0 1 1.8-2.8 2.6 2.6 0 0 1-.288-.562c-.028-.076-.053-.154-.075-.234a6.276 6.276 0 0 0-1.446 1.284 6.7 6.7 0 0 0-1.153-3.316 2.333 2.333 0 0 1-.492.582c-.031.026-.063.046-.093.07z" class="cls-1" transform="translate(-49.388 -19.698)"/>
    </g>
</svg>
