<svg xmlns="http://www.w3.org/2000/svg" width="34" height="30.909" viewBox="0 0 34 30.909">
    <g>
        <g>
            <path fill="#bcffdc" fill-rule="evenodd" d="M453.854 3208.51h-18.546a4.636 4.636 0 0 0-4.636 4.636v21.636a4.636 4.636 0 0 0 4.636 4.636h24.727a4.636 4.636 0 0 0 4.636-4.636v-15.454a4.636 4.636 0 0 0-4.636-4.636h-1.545v-1.546a4.636 4.636 0 0 0-4.636-4.636z" transform="translate(-430.672 -3208.51) translate(430.672 3208.51) translate(-430.672 -3208.51)"/>
        </g>
        <g>
            <path fill="#079d4e" d="M527.049 3276.8a1.545 1.545 0 1 0-1.545-1.545 1.545 1.545 0 0 0 1.545 1.545z" transform="translate(-430.672 -3208.51) translate(455.399 3225.51) translate(-525.504 -3273.707)"/>
        </g>
        <path fill="#079d4e" fill-rule="evenodd" d="M444.071 3220.364a1.545 1.545 0 1 0 0 3.091h20.091v-1.545a1.545 1.545 0 0 0-1.545-1.545z" transform="translate(-430.672 -3208.51) translate(-8.763 -8.763)"/>
    </g>
</svg>
