<svg xmlns="http://www.w3.org/2000/svg" width="17" height="16.314" viewBox="0 0 17 16.314">
    <defs>
        <style>
            .cls-2{stroke:transparent;stroke-miterlimit:10;fill:#fff}
        </style>
    </defs>
    <g id="ico" transform="translate(-0.5 -1.5)">
        <path id="패스_3610" fill="#d0d0d0" fill-rule="evenodd" stroke="rgba(0,0,0,0)" stroke-miterlimit="10" d="M1 4.182A2.182 2.182 0 0 1 3.182 2h11.636A2.182 2.182 0 0 1 17 4.182v8a2.182 2.182 0 0 1-2.182 2.182h-3.225l-1.346 2.244a1.454 1.454 0 0 1-2.495 0l-1.345-2.244H3.182A2.182 2.182 0 0 1 1 12.182z"/>
        <path id="패스_3611" d="M5 7.727A.728.728 0 0 1 5.727 7h5.818a.727.727 0 0 1 0 1.455H5.727A.728.728 0 0 1 5 7.727z" class="cls-2" transform="translate(-1.091 -1.364)"/>
        <path id="패스_3612" d="M5.727 11a.727.727 0 0 0 0 1.455h2.909a.727.727 0 0 0 0-1.455z" class="cls-2" transform="translate(-1.091 -2.455)"/>
    </g>
</svg>
