<svg xmlns="http://www.w3.org/2000/svg" width="20" height="19.142" viewBox="0 0 20 19.142">
    <defs>
        <style>
            .cls-2{fill:#26a361}
        </style>
    </defs>
    <g id="ico" transform="translate(-1 -2)">
        <path id="패스_3610" fill="#fff" fill-rule="evenodd" d="M1 4.727A2.727 2.727 0 0 1 3.727 2h14.546A2.727 2.727 0 0 1 21 4.727v10a2.727 2.727 0 0 1-2.727 2.727h-4.031l-1.683 2.8a1.818 1.818 0 0 1-3.118 0l-1.683-2.8H3.727A2.727 2.727 0 0 1 1 14.727z"/>
        <path id="패스_3611" d="M5 7.909A.909.909 0 0 1 5.909 7h7.273a.909.909 0 0 1 0 1.818H5.909A.909.909 0 0 1 5 7.909z" class="cls-2" transform="translate(-0.364 -0.455)"/>
        <path id="패스_3612" d="M5.909 11a.909.909 0 0 0 0 1.818h3.636a.909.909 0 0 0 0-1.818z" class="cls-2" transform="translate(-0.364 -0.818)"/>
    </g>
</svg>
