<svg xmlns="http://www.w3.org/2000/svg" width="34" height="34" viewBox="0 0 34 34">
    <defs>
        <style>
            .cls-2{fill-rule:evenodd;fill:#ff690b}
        </style>
    </defs>
    <g id="그룹_41138" transform="translate(-881.797 -2885.416)">
        <path id="패스_3153" fill="#f8eb53" fill-rule="evenodd" d="M915.344 2895.142l-9.273-9.273a1.546 1.546 0 0 0-1.093-.453h-12.363a1.547 1.547 0 0 0-1.093.453l-9.273 9.273a1.546 1.546 0 0 0-.452 1.093v12.365a1.546 1.546 0 0 0 .452 1.093l9.273 9.273a1.547 1.547 0 0 0 1.093.453h12.364a1.546 1.546 0 0 0 1.093-.453l9.273-9.273a1.546 1.546 0 0 0 .453-1.093v-12.364a1.546 1.546 0 0 0-.454-1.094z"/>
        <g id="그룹_41118" transform="translate(896.479 2893.143)">
            <path id="패스_3154" d="M940.03 2915.051h1.346a1.545 1.545 0 0 1 1.542 1.642l-.625 10a.773.773 0 0 1-.771.725h-1.639a.773.773 0 0 1-.771-.725l-.625-10a1.546 1.546 0 0 1 1.543-1.642z" class="cls-2" transform="translate(-938.385 -2915.051)"/>
            <path id="패스_3155" d="M940.421 2973.031a2.318 2.318 0 1 1 2.318-2.319 2.318 2.318 0 0 1-2.318 2.319z" class="cls-2" transform="translate(-938.103 -2954.485)"/>
        </g>
    </g>
</svg>
