<svg xmlns="http://www.w3.org/2000/svg" width="61" height="20" viewBox="0 0 61 20"><g><g><path d="M52.28 19.412l-1.527-1.45-.36-.335c.597-.672 1.198-1.318 1.763-1.994.266-.318.458-.698.696-1.041.138-.198.125-.378.044-.598-1.361-3.691-2.715-7.386-4.07-11.08-.028-.078-.054-.157-.098-.284l3.158-.853 1.358 4.686 1.341 4.63.114.016 2.684-9.372 3.117.869c-.143.4-.273.768-.406 1.135-1.22 3.337-2.419 6.682-3.67 10.007-.613 1.627-1.425 3.161-2.655 4.423-.437.448-.942.83-1.416 1.24z"/></g><g><path d="M28.035 11.059c0-1.958.006-3.916-.006-5.874-.002-.262.09-.385.322-.47.66-.244 1.329-.377 2.033-.26.791.13 1.363.581 1.578 1.333.195.679.296 1.398.333 2.104.045.845-.047 1.691-.368 2.494-.446 1.113-1.28 1.69-2.458 1.776-.46.034-.924.006-1.434.006v-1.11zm.002 3.344c.677.049 1.317.14 1.955.132 2.26-.03 3.894-1.089 4.848-3.128.881-1.884.865-3.863.452-5.855-.218-1.048-.65-2-1.475-2.72-1.498-1.307-4.069-1.34-5.722-.082-.195.148-.383.308-.601.484-.118-.303-.212-.571-.328-.83-.038-.082-.133-.196-.204-.197-.689-.015-1.379-.009-2.083-.009v16.633h3.158z"/></g><g><path d="M44.255 8.861c0 .794.005 1.462-.006 2.13-.001.092-.056.22-.128.268-.884.6-1.84.965-2.928.775-.55-.096-.817-.406-.914-.96-.172-.99.264-1.791 1.238-1.98.879-.17 1.792-.16 2.738-.233zm2.993 5.369c0-2.233.005-4.408-.003-6.583a25.322 25.322 0 0 0-.07-2.005c-.16-1.933-1.378-3.277-3.268-3.662-1.086-.221-2.16-.172-3.232.079-.947.222-1.844.559-2.664 1.123l.863 2.104c.109-.039.186-.063.26-.094a8.363 8.363 0 0 1 2.95-.671c1.534-.07 2.366.838 2.13 2.387h-1.13c-.956-.004-1.912-.013-2.846.245-1.297.358-2.295 1.05-2.693 2.41-.195.664-.194 1.341-.107 2.023.217 1.714 1.478 2.855 3.206 2.954 1.34.077 2.511-.351 3.606-1.068l.405-.264c.101.306.177.569.279.822.032.08.13.19.2.19.69.015 1.382.01 2.114.01z"/></g><g><path d="M19.371 7.977c0-4.082-4.224-7.391-9.436-7.391C4.725.586.5 3.895.5 7.977c0 2.435 1.503 4.595 3.822 5.942.096.126.098.27.037.48-.33 1.158-.626 2.325-.942 3.486-.066.242-.127.47.12.645.252.18.446.018.646-.117 1.445-.975 2.89-1.952 4.34-2.918.13-.087.3-.15.454-.157l.064-.003a11.893 11.893 0 0 0 3.504-.253 9.804 9.804 0 0 0 2.663-.974c2.512-1.328 4.163-3.579 4.163-6.13z"/></g></g></svg>