<svg xmlns="http://www.w3.org/2000/svg" width="16" height="24.664" viewBox="0 0 16 24.664">
    <defs>
        <style>
            .cls-1{fill:#045a2d}
        </style>
    </defs>
    <g id="그룹_40660" transform="translate(-1350.304 -3526.379)">
        <g id="그룹_40657" transform="translate(1350.304 3526.379)">
            <path id="패스_2180" d="M1358.889 3542.822h-1.171l-1.518-.849a1.434 1.434 0 0 0-.256-.112 1.417 1.417 0 0 0-.273-.06l-1.727-.205-.947-.688-.729-1.579a1.425 1.425 0 0 0-.328-.451l-1.276-1.181-.362-1.113.338-1.706a1.432 1.432 0 0 0 .027-.278 1.415 1.415 0 0 0-.027-.277l-.338-1.707.362-1.113 1.276-1.181a1.434 1.434 0 0 0 .327-.45l.729-1.579.947-.687 1.727-.206a1.437 1.437 0 0 0 .53-.172l1.517-.849h1.171l1.518.849a1.433 1.433 0 0 0 .53.172l1.726.206.947.688.729 1.579a1.412 1.412 0 0 0 .142.242 1.451 1.451 0 0 0 .186.209l1.276 1.181.361 1.113-.339 1.706a1.428 1.428 0 0 0 0 .556l.339 1.707-.361 1.113-1.277 1.182a1.437 1.437 0 0 0-.186.209 1.42 1.42 0 0 0-.141.24l-.729 1.579-.947.688-1.727.205a1.418 1.418 0 0 0-.273.06 1.447 1.447 0 0 0-.256.112z" class="cls-1" transform="translate(-1350.304 -3526.379)"/>
        </g>
        <g id="그룹_40658" transform="translate(1351.257 3539.336)">
            <path id="패스_2181" d="M1360.052 3598.764h-.587a1.174 1.174 0 0 1-1.05-.649l-.139-.278-1.1.73a1.176 1.176 0 0 1-.652.2h-.587a1.175 1.175 0 0 1-1.14-1.459l2.34-9.357a1.174 1.174 0 0 1 2.279.57l-1.721 6.883a1.173 1.173 0 0 1 .591-.16h.587a1.173 1.173 0 0 1 .457.093l1.331-6.211a1.175 1.175 0 0 1 2.3.492l-1.762 8.222a1.174 1.174 0 0 1-1.147.924z" class="cls-1" transform="translate(-1354.766 -3587.057)"/>
        </g>
        <g id="그룹_40659" transform="translate(1357.129 3539.336)">
            <path id="패스_2182" d="M1389.312 3598.764h-.587a1.175 1.175 0 0 1-.651-.2l-1.1-.73-.139.278a1.174 1.174 0 0 1-1.05.649h-.587a1.174 1.174 0 0 1-1.148-.928l-1.762-8.222a1.175 1.175 0 1 1 2.3-.492l1.331 6.211a1.173 1.173 0 0 1 .457-.093h.587a1.173 1.173 0 0 1 .591.16l-1.721-6.883a1.175 1.175 0 0 1 2.279-.57l2.339 9.357a1.175 1.175 0 0 1-1.14 1.459z" class="cls-1" transform="translate(-1382.265 -3587.057)"/>
        </g>
    </g>
</svg>
