<svg xmlns="http://www.w3.org/2000/svg" width="17.338" height="17.338" viewBox="0 0 17.338 17.338">
    <g>
        <path fill="#394d5c" d="M725.8 2277.923a8.669 8.669 0 1 0 8.669 8.669 8.679 8.679 0 0 0-8.669-8.669z" transform="translate(-717.136 -2277.923)"/>
        <path fill="#fff" d="M741.44 2298.706h-.761v-6.846a.761.761 0 0 0-1.1-.68l-1.521.761a.761.761 0 0 0 .68 1.361l.421-.21v5.615h-.759a.761.761 0 0 0 0 1.521h3.043a.761.761 0 0 0 0-1.521z" transform="translate(-717.136 -2277.923) translate(-14.114 -9.071)"/>
    </g>
</svg>
