<svg xmlns="http://www.w3.org/2000/svg" width="80" height="80" viewBox="0 0 80 80">
    <defs>
        <style>
            .cls-3{fill:#ffae14}
        </style>
    </defs>
    <g id="blog" transform="translate(-97 50)">
        <rect id="사각형_5935" width="80" height="80" fill="#65c41f" rx="4" transform="translate(97 -50)"/>
        <g id="그룹_41234" transform="translate(-1430.201 -3557.206)">
            <g id="그룹_41228" transform="translate(1549.202 3532.206)">
                <path id="패스_3584" fill="#3d8805" d="M1579.516 3532.206h-24.629a5.7 5.7 0 0 0-5.685 5.706v13.536a5.7 5.7 0 0 0 5.685 5.707h8.483l2.9 4.714a1.057 1.057 0 0 0 .094.134.97.97 0 0 0 1.679.006.672.672 0 0 0 .1-.141l2.9-4.713h8.484a5.7 5.7 0 0 0 5.686-5.707v-13.536a5.7 5.7 0 0 0-5.686-5.706z" transform="translate(-1549.202 -3532.206)"/>
            </g>
            <g id="그룹_41233" transform="translate(1554.782 3540.155)">
                <g id="그룹_41229" transform="translate(0 0.181)">
                    <path id="패스_3585" d="M1572.966 3563.907a2.581 2.581 0 0 0-1.652.765v-3.083h-1.944v8.1h1.964v-.634a1.864 1.864 0 0 0 1.632.836 2.864 2.864 0 0 0 2.739-3.021s-.105-2.963-2.739-2.963zm-.428 4.274a1.249 1.249 0 1 1 1.249-1.25 1.25 1.25 0 0 1-1.25 1.25z" class="cls-3" transform="translate(-1569.369 -3561.589)"/>
                </g>
                <g id="그룹_41230" transform="translate(6.96)">
                    <path id="패스_3586" d="M1594.525 3560.935v1.874s.887-.04.887 1.612v4.794h1.874v-5.237s.08-3.043-2.761-3.043z" class="cls-3" transform="translate(-1594.525 -3560.935)"/>
                </g>
                <g id="그룹_41231" transform="translate(11.09 2.523)">
                    <path id="패스_3587" d="M1612.662 3570.055s-3.211 0-3.211 3a2.9 2.9 0 0 0 3.211 2.959s3.286 0 3.286-2.959a2.952 2.952 0 0 0-3.286-3zm0 4.249a1.249 1.249 0 1 1 1.249-1.249 1.249 1.249 0 0 1-1.248 1.245z" class="cls-3" transform="translate(-1609.451 -3570.055)"/>
                </g>
                <g id="그룹_41232" transform="translate(18.569 2.523)">
                    <path id="패스_3588" d="M1640.864 3570.25v.544a2.125 2.125 0 0 0-1.631-.74 2.681 2.681 0 0 0-2.75 2.979s-.03 2.883 2.675 2.883a2.222 2.222 0 0 0 1.707-.74v.453s.137 1.421-1.239 1.421h-.468v1.721h.755a2.822 2.822 0 0 0 2.84-3.037v-5.484zm-1.162 4.052a1.249 1.249 0 1 1 1.249-1.249 1.248 1.248 0 0 1-1.251 1.247z" class="cls-3" transform="translate(-1636.483 -3570.053)"/>
                </g>
            </g>
        </g>
    </g>
</svg>
