<svg xmlns="http://www.w3.org/2000/svg" width="16" height="13.158" viewBox="0 0 16 13.158">
    <g>
        <g fill="#394d5c">
            <path d="M506.543 2289.791h-3.552a1.948 1.948 0 0 1-1.946-1.946v-6.363l.6.6a.9.9 0 0 0 1.267-1.267l-2.132-2.132a.9.9 0 0 0-1.267 0l-2.131 2.132a.9.9 0 0 0 0 1.267.917.917 0 0 0 1.267 0l.6-.6v6.363a3.741 3.741 0 0 0 3.737 3.737h3.552a.9.9 0 0 0 0-1.791z" opacity="0.4" transform="translate(-903 -466.42) translate(405.878 -1812.003) translate(0 0)"/>
            <path d="M530.188 2287.922a.9.9 0 0 0-1.267 0l-.6.6v-6.363a3.742 3.742 0 0 0-3.737-3.737h-3.554a.9.9 0 1 0 0 1.791h3.552a1.948 1.948 0 0 1 1.946 1.946v6.363l-.6-.6a.9.9 0 0 0-1.267 1.267l2.132 2.132a.9.9 0 0 0 1.267 0l2.131-2.132a.9.9 0 0 0-.003-1.267z" transform="translate(-903 -466.42) translate(405.878 -1812.003) translate(-17.328 0)"/>
        </g>
    </g>
</svg>
