<svg xmlns="http://www.w3.org/2000/svg" width="15" height="15.952" viewBox="0 0 15 15.952">
    <g>
        <g>
            <g>
                <g>
                    <path fill="#394d5c" d="M683.375 1667.669h-15l.279-.941a7.458 7.458 0 0 1 14.443 0zm-12.961-1.466h10.921a5.939 5.939 0 0 0-10.921 0zm5.461-5.777a4.354 4.354 0 1 1 4.354-4.354 4.359 4.359 0 0 1-4.354 4.354zm0-7.243a2.888 2.888 0 1 0 2.889 2.889 2.892 2.892 0 0 0-2.889-2.889z" transform="translate(-668.375 -1651.717) translate(668.375 1651.717) translate(0 0) translate(-668.375 -1651.717)"/>
                </g>
            </g>
        </g>
    </g>
</svg>
