<svg xmlns="http://www.w3.org/2000/svg" width="80" height="80" viewBox="0 0 80 80">
    <g transform="translate(-187 50)">
        <rect width="80" height="80" fill="#56ad16" rx="4" transform="translate(187 -50)"/>
        <g>
            <g>
                <g>
                    <path fill="#fff" d="M1801.007 3528.677a13.02 13.02 0 0 0-3.2.4v-2.465a.808.808 0 0 0-.018-.167 4.884 4.884 0 0 0-9.762 0c-.011.056-.018 9.251-.018 9.251v6.109a13 13 0 1 0 13-13.126zm0 24a11 11 0 0 1-11-11v-14.971a2.9 2.9 0 1 1 5.8 0l-.005 14.84a5.319 5.319 0 0 0 5.2 5.342 5.211 5.211 0 1 0-3.2-9.321v-2.23a7.1 7.1 0 1 1-3.9 6.339v-15.067a1 1 0 0 0-2 0v15.067c0 .229.011.455.027.679a9.094 9.094 0 1 0 5.87-9.2v-2.011a11 11 0 1 1 3.2 21.532zm-3.2-11a3.2 3.2 0 1 1 3.2 3.2 3.2 3.2 0 0 1-3.201-3.199z" transform="translate(-1574.008 -3548.207) translate(1788.007 3521.736) translate(0 0) translate(-1788.007 -3521.736)"/>
                </g>
            </g>
        </g>
    </g>
</svg>
