<svg xmlns="http://www.w3.org/2000/svg" width="60" height="60" viewBox="0 0 60 60">
    <g transform="translate(-2047 -478)">
        <circle cx="30" cy="30" r="30" fill="#fff1d8" transform="translate(2047 478)"/>
        <rect width="60" height="60" fill="#c4f7de" rx="8" transform="translate(2047 478)"/>
        <g>
            <path fill="#94efc2" d="M683.664 3533.117a3.5 3.5 0 1 1 3.5-3.5 3.5 3.5 0 0 1-3.5 3.5z" transform="translate(2063.547 494) translate(-679.711 -3515.117)"/>
            <path fill="#6bd9a3" d="M683.664 3533.117a3.5 3.5 0 1 1 3.5-3.5 3.5 3.5 0 0 1-3.5 3.5z" transform="translate(2063.547 494) translate(-669.711 -3515.117)"/>
            <path fill="#44cb88" d="M683.664 3533.117a3.5 3.5 0 1 1 3.5-3.5 3.5 3.5 0 0 1-3.5 3.5z" transform="translate(2063.547 494) translate(-659.711 -3515.117)"/>
        </g>
    </g>
</svg>
