<svg xmlns="http://www.w3.org/2000/svg" width="60" height="60" viewBox="0 0 60 60">
    <g transform="translate(-410 -248)">
        <rect width="60" height="60" fill="#3caf00" rx="8" transform="translate(410 248)"/>
        <g fill="#fff">
            <path d="M519.2 2305.065h-8.326a4.566 4.566 0 0 1-4.561-4.561v-14.913l1.411 1.411a2.1 2.1 0 1 0 2.969-2.968l-5-5a2.1 2.1 0 0 0-2.969 0l-5 5a2.1 2.1 0 0 0 0 2.968 2.149 2.149 0 0 0 2.969 0l1.412-1.411v14.909a8.769 8.769 0 0 0 8.76 8.759h8.335a2.1 2.1 0 0 0 0-4.2z" opacity="0.4" transform="translate(421.252 262.582) translate(-497.122 -2278.424)"/>
            <path d="M543.7 2300.685a2.1 2.1 0 0 0-2.969 0l-1.412 1.412v-14.914a8.769 8.769 0 0 0-8.76-8.759h-8.325a2.1 2.1 0 1 0 0 4.2h8.325a4.567 4.567 0 0 1 4.562 4.562v14.914l-1.412-1.412a2.1 2.1 0 0 0-2.969 2.969l5 5a2.1 2.1 0 0 0 2.969 0l5-5a2.1 2.1 0 0 0-.009-2.972z" opacity="0.8" transform="translate(421.252 262.582) translate(-506.813 -2278.424)"/>
        </g>
    </g>
</svg>
