<svg xmlns="http://www.w3.org/2000/svg" width="60" height="60" viewBox="0 0 60 60">
    <defs>
        <style>
            .cls-3{fill:#ffa74d}
        </style>
    </defs>
    <g id="ico" transform="translate(-2047 -478)">
        <circle id="타원_127" cx="30" cy="30" r="30" fill="#fff1d8" transform="translate(2047 478)"/>
        <rect id="사각형_5887" width="60" height="60" fill="#f7e3c4" rx="8" transform="translate(2047 478)"/>
        <g id="ico-2" transform="translate(2063.547 494)">
            <path id="패스_2161" d="M683.664 3533.117a3.5 3.5 0 1 1 3.5-3.5 3.5 3.5 0 0 1-3.5 3.5z" class="cls-3" transform="translate(-684.711 -3515.117)"/>
            <path id="패스_3164" d="M683.664 3533.117a3.5 3.5 0 1 1 3.5-3.5 3.5 3.5 0 0 1-3.5 3.5z" class="cls-3" transform="translate(-674.711 -3515.117)"/>
            <path id="패스_3165" d="M683.664 3533.117a3.5 3.5 0 1 1 3.5-3.5 3.5 3.5 0 0 1-3.5 3.5z" class="cls-3" transform="translate(-664.711 -3515.117)"/>
            <path id="패스_3168" d="M683.664 3533.117a3.5 3.5 0 1 1 3.5-3.5 3.5 3.5 0 0 1-3.5 3.5z" class="cls-3" transform="translate(-654.711 -3515.117)"/>
        </g>
    </g>
</svg>
