<svg xmlns="http://www.w3.org/2000/svg" width="350.877" height="145.318" viewBox="0 0 350.877 145.318">
    <defs>
        <style>
            .cls-2{fill:#0d4a2a}
        </style>
    </defs>
    <g id="그룹_40176" opacity="0.5" transform="translate(-60.709 -442.463)">
        <g id="그룹_39899" transform="translate(60.709 442.463)">
            <path id="패스_1599" d="M918.319 368.2a34.5 34.5 0 0 1-4.355-7.113 24.5 24.5 0 0 1-2.052-7.567q-1.339-13.431-2.681-26.865-1.634-16.415-3.276-32.829H617.7q-2.79 20.051-5.574 40.1c-.766 5.525-.867 11.281-2.413 16.662a36.058 36.058 0 0 1-6.5 12.579c-3.183 3.96-7.507 6.972-11.338 10.27-1.922 1.655-9.017 6.931-7.5 10.218 4.41 9.552 91.229-3.306 91.229-3.306s-42.363 26.155-29.568 28.2c18.116 2.9 75.872-.056 108.876-4.533 4.225-.572 37.121-9.82 41.523-9.835 9.675-.03 13.085 3.622 23.853 5.912 22.076 4.693 40.188 9.352 59.75 4.953 5.722-1.287-10.895-18.283-10.895-18.283s60.642 10.4 65.748 2.335c1.637-2.607-10.801-13.491-16.572-20.898z" class="cls-2" transform="translate(-584.156 -264.378)"/>
            <path id="패스_1600" fill="#d9f853" d="M881.869 315.347c0 16.116-64.662 29.178-144.425 29.178-15.074 0-29.609-.465-43.27-1.331-6.693-.424-9.727-5.451-15.959-6.061-9.478-.922-21.827 2.458-30.015 1.156-33.606-5.339-55.184-13.631-55.184-22.942 0-16.111 64.773-24.928 144.428-29.174 36.47-1.948 45.777 7.325 66.815 6.611 45.908-1.554 77.61 11.646 77.61 22.563z" transform="translate(-560.07 -285.904)"/>
            <g id="그룹_39898" transform="translate(52.42 9.93)">
                <path id="패스_1601" d="M699 307.622c-11.359 0-22.567-.279-33.312-.829a.813.813 0 0 1-.324-.078l-.926-.442a32.209 32.209 0 0 0-11.969-3.54 96.139 96.139 0 0 0-15.064.457c-2.7.242-5.205.461-7.083.461a10.96 10.96 0 0 1-1.265-.052c-2.477-.327-5.566-.655-8.667-.985-4.816-.513-9.79-1.045-12.434-1.565a.876.876 0 0 1 .018-1.722c17.034-2.93 51.35-5.745 91.791-7.53 2.454-.108 4.841-.16 7.1-.16a122.109 122.109 0 0 1 24.27 2.428c6.589 1.19 13.449 2.417 22.414 2.168 1.829-.052 3.67-.078 5.477-.078 12.022 0 31.64 1.116 38.92 2.555a.877.877 0 0 1 .011 1.718c-16.378 3.487-56.622 7.194-98.957 7.194zm-33.049-2.566c10.66.543 21.778.814 33.049.814 38.314 0 74.876-3.038 93.487-6.195-9.006-1.037-23.727-1.77-33.462-1.77-1.792 0-3.618.026-5.428.078-9.136.249-16.1-.993-22.775-2.2a120.4 120.4 0 0 0-23.957-2.4c-2.231 0-4.593.056-7.02.164-36.209 1.6-67.477 4.016-85.782 6.6 2.038.242 4.291.483 6.514.721 3.116.331 6.225.662 8.7.989a9.882 9.882 0 0 0 1.045.041c1.8 0 4.272-.223 6.89-.454 3.369-.3 7.147-.632 10.939-.632 1.58 0 3.042.056 4.459.168a33.875 33.875 0 0 1 12.59 3.72z" class="cls-2" transform="translate(-573.806 -280.248)"/>
                <path id="패스_1602" d="M723.22 327.334c-13.524 0-26.847-.409-39.6-1.219-1.309-.082-2.391-.684-4.347-1.83a24.076 24.076 0 0 0-10.173-3.759c-1.286-.126-2.625-.189-4.105-.189a107.248 107.248 0 0 0-11.382.814 89.6 89.6 0 0 1-9.028.688 18.907 18.907 0 0 1-2.826-.182c-30.923-4.919-40.854-11.01-43.163-12.758a.891.891 0 0 1-.345-.718.875.875 0 0 1 .376-.7c5.629-3.912 29.077-13.553 125-18.67 2.97-.156 5.864-.238 8.589-.238 13.3 0 21.6 1.811 29.631 3.562 7.385 1.606 14.345 3.112 23.526 2.811 2.19-.074 4.4-.112 6.57-.112 31.349 0 50.8 7.478 56.225 12.5a.87.87 0 0 1-.045 1.323c-1.975 1.584-10.5 7.136-37.392 11.969-24.054 4.325-55.131 6.708-87.511 6.708zM665 318.585c1.536 0 2.934.067 4.276.2a25.612 25.612 0 0 1 10.877 3.986c1.911 1.119 2.711 1.543 3.584 1.6 12.713.8 25.995 1.212 39.485 1.212 32.275 0 63.248-2.368 87.21-6.678 19.66-3.532 31.13-7.864 35.734-10.973-6.087-4.655-25.054-11.345-54.214-11.345-2.152 0-4.343.034-6.511.108-9.44.3-16.472-1.216-23.95-2.849a122.494 122.494 0 0 0-29.267-3.521c-2.7 0-5.555.078-8.5.234-90.17 4.808-115.8 13.5-123.007 17.669 3.618 2.283 14.26 7.4 41.319 11.7a16.731 16.731 0 0 0 2.551.16c2.528 0 5.585-.327 8.82-.673a108.73 108.73 0 0 1 11.593-.83z" class="cls-2" transform="translate(-598.254 -288.574)"/>
            </g>
        </g>
    </g>
</svg>
